<svg xmlns="http://www.w3.org/2000/svg" width="592" height="272" viewBox="0 0 592 272">
    <path d="M5.917 80V1.43h33.174v10.864H21.922v21.243h14.55v11.155h-14.55V80H5.917Zm63.322 1.067c-5.95 0-10.573-1.002-13.87-3.007-3.299-2.07-5.627-5.012-6.985-8.827-1.293-3.88-1.94-8.568-1.94-14.065V1.43h15.811v55.969c0 1.94.13 3.848.388 5.723.323 1.875.97 3.395 1.94 4.559 1.035 1.164 2.587 1.746 4.656 1.746 2.134 0 3.686-.582 4.656-1.746 1.035-1.164 1.681-2.684 1.94-4.559.259-1.875.388-3.783.388-5.723V1.43h15.811v53.738c0 5.497-.679 10.185-2.037 14.065-1.293 3.815-3.589 6.758-6.887 8.827-3.298 2.005-7.922 3.007-13.87 3.007ZM110.573 80V13.361H98.448V1.43h40.158v11.931h-11.931V80h-16.102Zm57.276 1.067c-5.949 0-10.573-1.002-13.871-3.007-3.298-2.07-5.626-5.012-6.984-8.827-1.293-3.88-1.94-8.568-1.94-14.065V1.43h15.811v55.969c0 1.94.13 3.848.388 5.723.324 1.875.97 3.395 1.94 4.559 1.035 1.164 2.587 1.746 4.656 1.746 2.134 0 3.686-.582 4.656-1.746 1.035-1.164 1.682-2.684 1.94-4.559.259-1.875.388-3.783.388-5.723V1.43h15.811v53.738c0 5.497-.679 10.185-2.037 14.065-1.293 3.815-3.589 6.758-6.887 8.827-3.298 2.005-7.921 3.007-13.871 3.007ZM201.812 80V1.43h20.37c5.302 0 9.829.614 13.58 1.843 3.815 1.164 6.725 3.266 8.73 6.305 2.069 3.04 3.104 7.243 3.104 12.61 0 3.233-.291 6.111-.873 8.633-.518 2.457-1.488 4.624-2.91 6.499-1.358 1.81-3.298 3.266-5.82 4.365L248.857 80h-16.393l-9.021-35.599h-5.626V80h-16.005Zm16.005-45.105h4.656c2.586 0 4.623-.42 6.111-1.261 1.487-.84 2.522-2.102 3.104-3.783.646-1.746.97-3.88.97-6.402 0-3.621-.679-6.37-2.037-8.245-1.294-1.94-3.751-2.91-7.372-2.91h-5.432v22.601ZM258.363 80V1.43h34.241v11.058h-18.236v20.855h14.065v11.155h-14.065v24.638h18.43V80h-34.435Zm42.533-28.227V42.17h24.347v9.603h-24.347ZM336.986 80V1.43h24.929c4.721 0 8.569.905 11.543 2.716 2.975 1.746 5.174 4.3 6.596 7.663 1.488 3.363 2.231 7.437 2.231 12.222 0 5.626-.97 10.023-2.91 13.192-1.875 3.169-4.462 5.432-7.76 6.79-3.298 1.293-7.081 1.94-11.349 1.94h-7.275V80h-16.005Zm16.005-45.299h5.626c2.328 0 4.107-.356 5.335-1.067 1.294-.776 2.167-1.972 2.619-3.589.453-1.617.679-3.686.679-6.208 0-2.393-.194-4.397-.582-6.014-.323-1.617-1.099-2.878-2.328-3.783-1.228-.905-3.168-1.358-5.82-1.358h-5.529v22.019ZM390.507 80V1.43h20.37c5.303 0 9.829.614 13.58 1.843 3.815 1.164 6.725 3.266 8.73 6.305 2.069 3.04 3.104 7.243 3.104 12.61 0 3.233-.291 6.111-.873 8.633-.517 2.457-1.487 4.624-2.91 6.499-1.358 1.81-3.298 3.266-5.82 4.365L437.552 80h-16.393l-9.021-35.599h-5.626V80h-16.005Zm16.005-45.105h4.656c2.587 0 4.624-.42 6.111-1.261 1.487-.84 2.522-2.102 3.104-3.783.647-1.746.97-3.88.97-6.402 0-3.621-.679-6.37-2.037-8.245-1.293-1.94-3.751-2.91-7.372-2.91h-5.432v22.601Zm61.9 46.172c-5.755 0-10.314-1.035-13.677-3.104-3.362-2.07-5.787-5.012-7.275-8.827-1.422-3.88-2.134-8.504-2.134-13.871V25.971c0-5.367.712-9.959 2.134-13.774 1.488-3.815 3.913-6.725 7.275-8.73C458.098 1.462 462.657.46 468.412.46c5.82 0 10.412 1.035 13.774 3.104 3.428 2.005 5.853 4.915 7.275 8.73 1.488 3.75 2.231 8.31 2.231 13.677v29.294c0 5.367-.743 9.991-2.231 13.871-1.422 3.815-3.847 6.758-7.275 8.827-3.362 2.07-7.954 3.104-13.774 3.104Zm0-11.543c2.07 0 3.589-.453 4.559-1.358.97-.97 1.617-2.231 1.94-3.783.324-1.617.485-3.33.485-5.141V22.091c0-1.81-.161-3.492-.485-5.044-.323-1.552-.97-2.78-1.94-3.686-.97-.97-2.489-1.455-4.559-1.455-1.94 0-3.395.485-4.365 1.455-.97.905-1.616 2.134-1.94 3.686-.323 1.552-.485 3.233-.485 5.044v37.151c0 1.81.13 3.524.388 5.141.324 1.552.97 2.813 1.94 3.783.97.905 2.458 1.358 4.462 1.358Zm55.889 11.543c-5.755 0-10.314-1.035-13.677-3.104-3.363-2.07-5.788-5.012-7.275-8.827-1.423-3.88-2.134-8.504-2.134-13.871V25.971c0-5.367.711-9.959 2.134-13.774 1.487-3.815 3.912-6.725 7.275-8.73C513.987 1.462 518.546.46 524.301.46c5.82 0 10.411 1.035 13.774 3.104 3.427 2.005 5.852 4.915 7.275 8.73 1.487 3.75 2.231 8.31 2.231 13.677v29.294c0 5.367-.744 9.991-2.231 13.871-1.423 3.815-3.848 6.758-7.275 8.827-3.363 2.07-7.954 3.104-13.774 3.104Zm0-11.543c2.069 0 3.589-.453 4.559-1.358.97-.97 1.617-2.231 1.94-3.783.323-1.617.485-3.33.485-5.141V22.091c0-1.81-.162-3.492-.485-5.044-.323-1.552-.97-2.78-1.94-3.686-.97-.97-2.49-1.455-4.559-1.455-1.94 0-3.395.485-4.365 1.455-.97.905-1.617 2.134-1.94 3.686-.323 1.552-.485 3.233-.485 5.044v37.151c0 1.81.129 3.524.388 5.141.323 1.552.97 2.813 1.94 3.783.97.905 2.457 1.358 4.462 1.358ZM558.268 80V1.43h33.174v10.864h-17.169v21.243h14.55v11.155h-14.55V80h-16.005Z" fill="#DE00A5"/>
    <path d="M16.199 175v-31.137L.873 96.43h15.035l8.439 27.645 7.857-27.645h14.55l-15.132 47.433V175H16.199Zm57.961 1.067c-5.755 0-10.314-1.035-13.677-3.104-3.362-2.069-5.787-5.012-7.275-8.827-1.422-3.88-2.134-8.504-2.134-13.871v-29.294c0-5.367.712-9.959 2.134-13.774 1.488-3.815 3.913-6.725 7.275-8.73 3.363-2.005 7.922-3.007 13.677-3.007 5.82 0 10.412 1.035 13.774 3.104 3.428 2.005 5.853 4.915 7.275 8.73 1.488 3.751 2.231 8.31 2.231 13.677v29.294c0 5.367-.743 9.991-2.23 13.871-1.423 3.815-3.848 6.758-7.276 8.827-3.362 2.069-7.954 3.104-13.774 3.104Zm0-11.543c2.07 0 3.59-.453 4.56-1.358.97-.97 1.616-2.231 1.94-3.783.323-1.617.484-3.33.484-5.141v-37.151c0-1.811-.161-3.492-.485-5.044-.323-1.552-.97-2.781-1.94-3.686-.97-.97-2.49-1.455-4.559-1.455-1.94 0-3.395.485-4.365 1.455-.97.905-1.616 2.134-1.94 3.686-.323 1.552-.485 3.233-.485 5.044v37.151c0 1.811.13 3.524.388 5.141.324 1.552.97 2.813 1.94 3.783.97.905 2.458 1.358 4.462 1.358Zm56.083 11.543c-5.949 0-10.573-1.002-13.871-3.007-3.298-2.069-5.626-5.012-6.984-8.827-1.293-3.88-1.94-8.568-1.94-14.065V96.43h15.811v55.969c0 1.94.129 3.848.388 5.723.323 1.875.97 3.395 1.94 4.559 1.035 1.164 2.587 1.746 4.656 1.746 2.134 0 3.686-.582 4.656-1.746 1.035-1.164 1.681-2.684 1.94-4.559.259-1.875.388-3.783.388-5.723V96.43h15.811v53.738c0 5.497-.679 10.185-2.037 14.065-1.293 3.815-3.589 6.758-6.887 8.827-3.298 2.005-7.922 3.007-13.871 3.007ZM164.205 175V96.43h20.37c5.303 0 9.829.614 13.58 1.843 3.815 1.164 6.725 3.266 8.73 6.305 2.069 3.039 3.104 7.243 3.104 12.61 0 3.233-.291 6.111-.873 8.633-.517 2.457-1.487 4.624-2.91 6.499-1.358 1.811-3.298 3.266-5.82 4.365L211.25 175h-16.393l-9.021-35.599h-5.626V175h-16.005Zm16.005-45.105h4.656c2.587 0 4.624-.42 6.111-1.261s2.522-2.102 3.104-3.783c.647-1.746.97-3.88.97-6.402 0-3.621-.679-6.37-2.037-8.245-1.293-1.94-3.751-2.91-7.372-2.91h-5.432v22.601ZM27.742 271.067c-5.82 0-10.444-1.099-13.871-3.298-3.363-2.199-5.723-5.238-7.081-9.118-1.358-3.945-2.037-8.504-2.037-13.677v-28.227c0-5.432.679-10.088 2.037-13.968 1.358-3.945 3.718-6.984 7.081-9.118 3.427-2.134 8.051-3.201 13.871-3.201 5.626 0 10.023.938 13.192 2.813 3.233 1.875 5.497 4.527 6.79 7.954 1.358 3.427 2.037 7.404 2.037 11.931v6.596h-15.52v-7.372c0-1.811-.097-3.492-.291-5.044-.194-1.617-.744-2.91-1.649-3.88-.84-1.035-2.328-1.552-4.462-1.552s-3.686.517-4.656 1.552c-.97 1.035-1.584 2.393-1.843 4.074-.259 1.617-.388 3.427-.388 5.432v35.696c0 2.199.162 4.139.485 5.82.388 1.617 1.067 2.878 2.037 3.783 1.035.841 2.49 1.261 4.365 1.261 2.07 0 3.524-.485 4.365-1.455.905-1.035 1.455-2.393 1.649-4.074.259-1.681.388-3.46.388-5.335v-7.663h15.52v6.499c0 4.591-.647 8.665-1.94 12.222-1.293 3.492-3.524 6.273-6.693 8.342-3.169 2.005-7.63 3.007-13.386 3.007ZM55.652 270l15.23-78.57h17.75L103.764 270h-14.84l-2.814-17.266H73.694L70.687 270H55.652Zm19.497-27.063h9.41l-4.754-31.719-4.656 31.719ZM111.727 270v-78.57h20.37c5.302 0 9.829.614 13.58 1.843 3.815 1.164 6.725 3.266 8.73 6.305 2.069 3.039 3.104 7.243 3.104 12.61 0 3.233-.291 6.111-.873 8.633-.518 2.457-1.488 4.624-2.91 6.499-1.358 1.811-3.298 3.266-5.82 4.365L158.772 270h-16.393l-9.021-35.599h-5.626V270h-16.005Zm16.005-45.105h4.656c2.586 0 4.623-.42 6.111-1.261 1.487-.841 2.522-2.102 3.104-3.783.646-1.746.97-3.88.97-6.402 0-3.621-.679-6.37-2.037-8.245-1.294-1.94-3.751-2.91-7.372-2.91h-5.432v22.601ZM168.278 270v-78.57h34.241v11.058h-18.236v20.855h14.065v11.155h-14.065v24.638h18.43V270h-34.435Zm42.533 0v-78.57h34.241v11.058h-18.236v20.855h14.065v11.155h-14.065v24.638h18.43V270h-34.435Zm42.532 0v-78.57h20.37c5.302 0 9.829.614 13.58 1.843 3.815 1.164 6.725 3.266 8.73 6.305 2.069 3.039 3.104 7.243 3.104 12.61 0 3.233-.291 6.111-.873 8.633-.518 2.457-1.488 4.624-2.91 6.499-1.358 1.811-3.298 3.266-5.82 4.365L300.388 270h-16.393l-9.021-35.599h-5.626V270h-16.005Zm16.005-45.105h4.656c2.586 0 4.623-.42 6.111-1.261 1.487-.841 2.522-2.102 3.104-3.783.646-1.746.97-3.88.97-6.402 0-3.621-.679-6.37-2.037-8.245-1.294-1.94-3.751-2.91-7.372-2.91h-5.432v22.601Z" fill="#fff"/>
</svg>
