<svg width="32" height="32" viewBox="0 0 32 32" xmlns="http://www.w3.org/2000/svg" class="Icon-module_icon__23Vv4 Icon-module_sBreakpointSizexlarge__IPzqP Icon-module_white__3Qc_r" aria-hidden="false"><path fill='#fff' fill-rule="evenodd" clip-rule="evenodd" d="M16.5005 4C13.2413 4 12.8333 4.0136 11.5533 4.072C10.2757 4.1304 9.40289 4.3336 8.63969 4.6304C7.83969 4.9312 7.11409 5.4032 6.51409 6.0144C5.90387 6.61371 5.43157 7.3388 5.13009 8.1392C4.83489 8.9024 4.63089 9.776 4.57249 11.0536C4.51489 12.3328 4.50049 12.74 4.50049 16C4.50049 19.26 4.51409 19.6672 4.57249 20.9472C4.63089 22.2248 4.83409 23.0976 5.13089 23.8608C5.43169 24.6608 5.90369 25.3864 6.51489 25.9864C7.11421 26.5966 7.8393 27.0689 8.63969 27.3704C9.40289 27.6664 10.2757 27.8696 11.5533 27.928C12.8333 27.9864 13.2413 28 16.5005 28C19.7597 28 20.1677 27.9864 21.4477 27.928C22.7253 27.8696 23.5981 27.6664 24.3613 27.3696C25.1613 27.0688 25.8869 26.5968 26.4869 25.9856C27.0971 25.3863 27.5694 24.6612 27.8709 23.8608C28.1669 23.0976 28.3701 22.2248 28.4285 20.9472C28.4869 19.6672 28.5005 19.2592 28.5005 16C28.5005 12.7408 28.4869 12.3328 28.4285 11.0528C28.3701 9.7752 28.1669 8.9024 27.8701 8.1392C27.5688 7.33845 27.0965 6.61306 26.4861 6.0136C25.8868 5.40338 25.1617 4.93109 24.3613 4.6296C23.5981 4.3344 22.7245 4.1304 21.4469 4.072C20.1677 4.0144 19.7605 4 16.5005 4ZM16.5005 6.1624C19.7045 6.1624 20.0845 6.1744 21.3501 6.232C22.5197 6.2856 23.1549 6.48 23.5781 6.6456C24.1381 6.8624 24.5381 7.1232 24.9581 7.5424C25.3781 7.9624 25.6381 8.3624 25.8549 8.9224C26.0197 9.3456 26.2149 9.9808 26.2685 11.1504C26.3261 12.416 26.3381 12.796 26.3381 16C26.3381 19.204 26.3261 19.584 26.2685 20.8496C26.2149 22.0192 26.0205 22.6544 25.8549 23.0776C25.6628 23.5988 25.3564 24.0704 24.9581 24.4576C24.571 24.856 24.0994 25.1624 23.5781 25.3544C23.1549 25.5192 22.5197 25.7144 21.3501 25.768C20.0845 25.8256 19.7053 25.8376 16.5005 25.8376C13.2957 25.8376 12.9165 25.8256 11.6509 25.768C10.4813 25.7144 9.84609 25.52 9.42289 25.3544C8.90165 25.1623 8.43009 24.8559 8.04289 24.4576C7.64463 24.0704 7.33819 23.5988 7.14609 23.0776C6.98129 22.6544 6.78609 22.0192 6.73249 20.8496C6.67489 19.584 6.66289 19.204 6.66289 16C6.66289 12.796 6.67489 12.416 6.73249 11.1504C6.78609 9.9808 6.98049 9.3456 7.14609 8.9224C7.36289 8.3624 7.62369 7.9624 8.04289 7.5424C8.43004 7.14404 8.90162 6.83758 9.42289 6.6456C9.84609 6.4808 10.4813 6.2856 11.6509 6.232C12.9165 6.1744 13.2965 6.1624 16.5005 6.1624V6.1624Z"></path><path fill='#fff' fill-rule="evenodd" clip-rule="evenodd" d="M16.5005 20.0042C15.9747 20.0042 15.454 19.9006 14.9683 19.6994C14.4825 19.4982 14.0411 19.2033 13.6693 18.8315C13.2975 18.4597 13.0025 18.0183 12.8013 17.5325C12.6001 17.0467 12.4965 16.526 12.4965 16.0002C12.4965 15.4744 12.6001 14.9537 12.8013 14.4679C13.0025 13.9822 13.2975 13.5408 13.6693 13.169C14.0411 12.7971 14.4825 12.5022 14.9683 12.301C15.454 12.0998 15.9747 11.9962 16.5005 11.9962C17.5624 11.9962 18.5809 12.4181 19.3318 13.169C20.0827 13.9198 20.5045 14.9383 20.5045 16.0002C20.5045 17.0621 20.0827 18.0806 19.3318 18.8315C18.5809 19.5824 17.5624 20.0042 16.5005 20.0042V20.0042ZM16.5005 9.83221C14.8647 9.83221 13.2958 10.482 12.1391 11.6388C10.9824 12.7955 10.3325 14.3644 10.3325 16.0002C10.3325 17.6361 10.9824 19.2049 12.1391 20.3616C13.2958 21.5184 14.8647 22.1682 16.5005 22.1682C18.1364 22.1682 19.7052 21.5184 20.862 20.3616C22.0187 19.2049 22.6685 17.6361 22.6685 16.0002C22.6685 14.3644 22.0187 12.7955 20.862 11.6388C19.7052 10.482 18.1364 9.83221 16.5005 9.83221V9.83221ZM24.4629 9.72021C24.4629 10.1069 24.3093 10.4777 24.0359 10.7512C23.7625 11.0246 23.3916 11.1782 23.0049 11.1782C22.6182 11.1782 22.2474 11.0246 21.974 10.7512C21.7005 10.4777 21.5469 10.1069 21.5469 9.72021C21.5469 9.33352 21.7005 8.96267 21.974 8.68925C22.2474 8.41582 22.6182 8.26221 23.0049 8.26221C23.3916 8.26221 23.7625 8.41582 24.0359 8.68925C24.3093 8.96267 24.4629 9.33352 24.4629 9.72021"></path></svg>