<svg xmlns="http://www.w3.org/2000/svg" width="32" height="32" fill="none" viewBox="0 0 32 32" class="whyFutureLearn-icon_3L0yD"><path fill="#fff" d="M0 0h32v32H0z"></path><path fill="#DE00A5" d="M16 3A10 10 0 0 0 6 13c0 9 10 16 10 16s10-7 10-16A10 10 0 0 0 16 3Zm0 14a4 4 0 1 1 0-8 4 4 0 0 1 0 8Z"></path><path stroke="#030138" stroke-linecap="round" stroke-linejoin="round" stroke-width="2" d="M7 29h18"></path><path stroke="#030138" stroke-linecap="round" stroke-linejoin="round" stroke-width="2" d="M16 17a4 4 0 1 0 0-8 4 4 0 0 0 0 8Z"></path><path stroke="#030138" stroke-linecap="round" stroke-linejoin="round" stroke-width="2" d="M26 13c0 9-10 16-10 16S6 22 6 13a10 10 0 1 1 20 0v0Z"></path></svg>