<svg xmlns="http://www.w3.org/2000/svg" width="32" height="32" fill="none" viewBox="0 0 32 32" class="whyFutureLearn-icon_3L0yD"><path fill="#fff" d="M0 0h32v32H0z"></path><path fill="#DE00A5" d="M4 19V8a2 2 0 0 1 2-2h20a2 2 0 0 1 2 2v11H4Z"></path><path stroke="#030138" stroke-linecap="round" stroke-linejoin="round" stroke-width="2" d="M6 24h20a2 2 0 0 0 2-2V8a2 2 0 0 0-2-2H6a2 2 0 0 0-2 2v14a2 2 0 0 0 2 2Z"></path><path stroke="#030138" stroke-linecap="round" stroke-linejoin="round" stroke-width="2" d="M20 28h-8"></path><path stroke="#030138" stroke-linecap="round" stroke-linejoin="round" stroke-width="2" d="M4 19h24"></path><path stroke="#030138" stroke-linecap="round" stroke-linejoin="round" stroke-width="2" d="M16 24v4"></path></svg>