<svg xmlns="http://www.w3.org/2000/svg" width="32" height="32" fill="none" viewBox="0 0 32 32" class="whyFutureLearn-icon_3L0yD"><path fill="#fff" d="M0 0h32v32H0z"></path><path fill="#DE00A5" d="M16 18a6 6 0 1 0 0-12 6 6 0 0 0 0 12Z"></path><path stroke="#030138" stroke-linecap="round" stroke-linejoin="round" stroke-width="2" d="M16 22c5.523 0 10-4.477 10-10S21.523 2 16 2 6 6.477 6 12s4.477 10 10 10Z"></path><path stroke="#030138" stroke-linecap="round" stroke-linejoin="round" stroke-width="2" d="M16 18a6 6 0 1 0 0-12 6 6 0 0 0 0 12Z"></path><path stroke="#030138" stroke-linecap="round" stroke-linejoin="round" stroke-width="2" d="M22 20v10l-6-3-6 3V20"></path></svg>