<svg xmlns="http://www.w3.org/2000/svg" width="32" height="32" fill="none" viewBox="0 0 32 32" class="whyFutureLearn-icon_3L0yD"><path fill="#fff" d="M0 0h32v32H0z"></path><path fill="#DE00A5" d="M7 7v6.887c0 4.963 3.975 9.075 8.938 9.113A9 9 0 0 0 25 14V7a1 1 0 0 0-1-1H8a1 1 0 0 0-1 1Z"></path><path stroke="#030138" stroke-linecap="round" stroke-linejoin="round" stroke-width="2" d="M7 7v6.887c0 4.963 3.975 9.075 8.938 9.113A9 9 0 0 0 25 14V7a1 1 0 0 0-1-1H8a1 1 0 0 0-1 1Z"></path><path stroke="#030138" stroke-linecap="round" stroke-linejoin="round" stroke-width="2" d="M12 28h8"></path><path stroke="#030138" stroke-linecap="round" stroke-linejoin="round" stroke-width="2" d="M16 23v5"></path><path stroke="#030138" stroke-linecap="round" stroke-linejoin="round" stroke-width="2" d="M24.775 16H26a4 4 0 0 0 4-4v-2a1 1 0 0 0-1-1h-4"></path><path stroke="#030138" stroke-linecap="round" stroke-linejoin="round" stroke-width="2" d="M7.25 16H5.987a4 4 0 0 1-4-4v-2a1 1 0 0 1 1-1h4"></path></svg>