<svg xmlns="http://www.w3.org/2000/svg" width="32" height="32" fill="none" viewBox="0 0 32 32" class="whyFutureLearn-icon_3L0yD"><path fill="#fff" d="M0 0h32v32H0z"></path><path fill="#DE00A5" d="M4.5 13.863v6.825c0 .212.071.418.2.587C5.537 22.4 9.088 26.5 16 26.5c6.913 0 10.462-4.1 11.3-5.225a.975.975 0 0 0 .2-.587v-6.825L16 20 4.5 13.863Z"></path><path stroke="#030138" stroke-linecap="round" stroke-linejoin="round" stroke-width="2" d="m1 12 15-8 15 8-15 8-15-8Z"></path><path stroke="#030138" stroke-linecap="round" stroke-linejoin="round" stroke-width="2" d="M23.5 30V16L16 12"></path><path stroke="#030138" stroke-linecap="round" stroke-linejoin="round" stroke-width="2" d="M27.5 13.863v6.825a.975.975 0 0 1-.2.587C26.462 22.4 22.913 26.5 16 26.5c-6.912 0-10.463-4.1-11.3-5.225a.975.975 0 0 1-.2-.587v-6.825"></path></svg>