<svg width="32" height="32" viewBox="0 0 32 32" xmlns="http://www.w3.org/2000/svg" class="Icon-module_icon__23Vv4 Icon-module_sBreakpointSizexlarge__IPzqP Icon-module_white__3Qc_r" aria-hidden="false"><path fill='#fff' d="M28.5005 5.76471V26.2353C28.5005 26.7033 28.3146 27.1522 27.9836 27.4831C27.6527 27.8141 27.2038 28 26.7358 28H6.26519C5.79717 28 5.34831 27.8141 5.01736 27.4831C4.68641 27.1522 4.50049 26.7033 4.50049 26.2353V5.76471C4.50049 5.29668 4.68641 4.84782 5.01736 4.51687C5.34831 4.18592 5.79717 4 6.26519 4H26.7358C27.2038 4 27.6527 4.18592 27.9836 4.51687C28.3146 4.84782 28.5005 5.29668 28.5005 5.76471V5.76471ZM11.5593 13.1765H8.0299V24.4706H11.5593V13.1765ZM11.877 9.29412C11.8788 9.02715 11.8281 8.76242 11.7276 8.51506C11.6272 8.2677 11.479 8.04255 11.2915 7.85246C11.1041 7.66237 10.881 7.51107 10.635 7.4072C10.3891 7.30332 10.1251 7.24891 9.85814 7.24706H9.79461C9.25169 7.24706 8.73101 7.46273 8.34712 7.84663C7.96322 8.23053 7.74755 8.7512 7.74755 9.29412C7.74755 9.83703 7.96322 10.3577 8.34712 10.7416C8.73101 11.1255 9.25169 11.3412 9.79461 11.3412V11.3412C10.0616 11.3477 10.3273 11.3016 10.5764 11.2055C10.8256 11.1094 11.0534 10.9651 11.2468 10.7809C11.4401 10.5967 11.5953 10.3762 11.7035 10.132C11.8116 9.88776 11.8705 9.62464 11.877 9.35765V9.29412ZM24.9711 17.6094C24.9711 14.2141 22.8111 12.8941 20.6652 12.8941C19.9626 12.8589 19.263 13.0086 18.6363 13.3281C18.0096 13.6477 17.4776 14.126 17.0934 14.7153H16.9946V13.1765H13.677V24.4706H17.2064V18.4635C17.1554 17.8483 17.3491 17.2378 17.7457 16.7646C18.1422 16.2915 18.7094 15.9939 19.324 15.9365H19.4581C20.5805 15.9365 21.4134 16.6424 21.4134 18.4212V24.4706H24.9428L24.9711 17.6094Z"></path></svg>