<svg width="32" height="32" viewBox="0 0 32 32" xmlns="http://www.w3.org/2000/svg" class="Icon-module_icon__23Vv4 Icon-module_sBreakpointSizexlarge__IPzqP Icon-module_white__3Qc_r" aria-hidden="false"><path fill='#fff' d="M29.5015 7.501C28.5445 7.926 27.5165 8.212 26.4375 8.341C27.5395 7.681 28.3845 6.636 28.7825 5.39C27.7525 6.001 26.6105 6.445 25.3945 6.685C24.4215 5.648 23.0355 5 21.5015 5C18.5555 5 16.1675 7.389 16.1675 10.334C16.1675 10.752 16.2155 11.16 16.3055 11.549C11.8725 11.327 7.94249 9.203 5.31049 5.975C4.85249 6.763 4.58949 7.679 4.58949 8.658C4.58949 10.508 5.53049 12.141 6.96149 13.097C6.08749 13.069 5.26449 12.829 4.54549 12.43C4.54549 12.453 4.54549 12.474 4.54549 12.497C4.54549 15.082 6.38349 17.238 8.82449 17.727C8.37749 17.849 7.90549 17.914 7.41849 17.914C7.07549 17.914 6.74049 17.88 6.41549 17.819C7.09449 19.938 9.06449 21.481 11.3985 21.524C9.57349 22.955 7.27349 23.808 4.77349 23.808C4.34349 23.808 3.91849 23.783 3.50049 23.733C5.86149 25.246 8.66449 26.129 11.6775 26.129C21.4895 26.129 26.8535 18.001 26.8535 10.952C26.8535 10.721 26.8485 10.491 26.8385 10.262C27.8815 9.509 28.7865 8.57 29.5015 7.501Z"></path></svg>