<svg width="32" height="32" viewBox="0 0 32 32" xmlns="http://www.w3.org/2000/svg" class="Icon-module_icon__23Vv4 Icon-module_sBreakpointSizexlarge__IPzqP Icon-module_white__3Qc_r" aria-hidden="false"><path fill='#fff' d="M29.4352 8.86912C29.1247 7.74037 28.2094 6.8505 27.0484 6.54863C24.9424 6 16.4995 6 16.4995 6C16.4995 6 8.05661 6 5.95061 6.54863C4.78961 6.8505 3.87431 7.74037 3.56381 8.86912C2.99951 10.9166 2.99951 16.5 2.99951 16.5C2.99951 16.5 2.99951 22.0834 3.56381 24.1309C3.87431 25.2596 4.78961 26.1495 5.95061 26.4514C8.05661 27 16.4995 27 16.4995 27C16.4995 27 24.9424 27 27.0484 26.4514C28.2108 26.1495 29.1247 25.2596 29.4352 24.1309C29.9995 22.0834 29.9995 16.5 29.9995 16.5C29.9995 16.5 29.9995 10.9166 29.4352 8.86912ZM13.7995 19.9099V13.0901C13.7995 12.5848 14.3625 12.2698 14.812 12.5218L20.887 15.9317C21.3366 16.1837 21.3366 16.8163 20.887 17.0683L14.812 20.4782C14.3625 20.7315 13.7995 20.4152 13.7995 19.9099Z"></path></svg>